# xmcd CD database file
#
# Track frame offsets:
#	150
#	4656
#	18616
#	48737
#	76943
#	96374
#	101537
#	136192
#	167623
#	170639
#	176831
#	211079
#	249895
#
# Disc length: 3477 seconds
#
# Revision: 0
# Processed by: cddbd v1.5.2PL0 Copyright (c) Steve Scherf et al.
# Submitted via: CDex 1.51
#
DISCID=a20d930d
DTITLE=Graden Agnas Fernqvist - Gembra
DYEAR=2012
DGENRE=Jazz
TTITLE0=Prologo
TTITLE1=Maine coon
TTITLE2=Lunden
TTITLE3=Cembra
TTITLE4=Talinn
TTITLE5=Intermezzo I
TTITLE6=Tyst regn
TTITLE7=Delphinium
TTITLE8=King korn
TTITLE9=Intermezzo II
TTITLE10=Zarja
TTITLE11=Ottmar
TTITLE12=Contré que rose ( For Laura)
EXTD=YEAR: 2012
EXTT0=
EXTT1=
EXTT2=
EXTT3=
EXTT4=
EXTT5=
EXTT6=
EXTT7=
EXTT8=
EXTT9=
EXTT10=
EXTT11=
EXTT12=
PLAYORDER=
